<svg width="47" height="39" viewBox="0 0 47 39" fill="none" xmlns="http://www.w3.org/2000/svg">
<path fill-rule="evenodd" clip-rule="evenodd" d="M8.43854 0.191545L0.0345507 17.3623C0.00257109 17.4261 -0.00756304 17.4983 0.00563031 17.5682C0.0188237 17.638 0.0546524 17.702 0.107877 17.7506L22.805 38.9062C22.8695 38.9664 22.9554 39 23.0447 39C23.134 39 23.2199 38.9664 23.2844 38.9062L45.9815 17.7519C46.0348 17.7033 46.0706 17.6393 46.0838 17.5695C46.097 17.4996 46.0868 17.4275 46.0549 17.3636L37.6509 0.192866C37.6237 0.135199 37.5801 0.0863486 37.5252 0.0521517C37.4703 0.0179548 37.4065 -0.000141459 37.3413 2.55611e-05H8.75086C8.68535 -0.000767149 8.62101 0.0168932 8.56559 0.0508763C8.51017 0.0848594 8.46605 0.133714 8.43854 0.191545Z" fill="#50AF95"/>
<path fill-rule="evenodd" clip-rule="evenodd" d="M25.9607 19.1256C25.7977 19.1374 24.9558 19.1863 23.0779 19.1863C21.5842 19.1863 20.5237 19.1427 20.1516 19.1256C14.3792 18.8786 10.0706 17.9012 10.0706 16.7309C10.0706 15.5607 14.3792 14.5846 20.1516 14.3336V18.1521C20.5291 18.1785 21.61 18.2406 23.1037 18.2406C24.8961 18.2406 25.7937 18.168 25.9552 18.1534V14.3362C31.7154 14.5859 36.0145 15.5633 36.0145 16.7309C36.0145 17.8985 31.7168 18.8759 25.9552 19.1242L25.9607 19.1256ZM25.9607 13.9413V10.5243H33.9994V5.31369H12.1129V10.5243H20.1503V13.94C13.6174 14.2319 8.70459 15.4906 8.70459 16.999C8.70459 18.5074 13.6174 19.7648 20.1503 20.0581V31.0077H25.9593V20.0541C32.4772 19.7622 37.3819 18.5048 37.3819 16.9977C37.3819 15.4906 32.4813 14.2332 25.9593 13.94L25.9607 13.9413Z" fill="white"/>
</svg>
