<svg width="71" height="84" viewBox="0 0 71 84" fill="none" xmlns="http://www.w3.org/2000/svg">
<path d="M61.9571 64.7495C58.0449 66.9404 54.1327 69.1117 50.2204 71.4101C50.0756 71.5381 49.8962 71.6204 49.7047 71.6465C49.5132 71.6726 49.3183 71.6414 49.1445 71.5568C48.7924 71.3514 48.8805 71.0091 48.8902 70.6864C48.8902 66.6959 48.8902 62.7152 48.8902 58.7247C48.8589 58.3775 48.9361 58.0291 49.1114 57.7278C49.2866 57.4264 49.5511 57.1869 49.8683 57.0424C52.1104 55.9237 54.2913 54.6864 56.4018 53.3355C57.0548 52.8484 57.5757 52.2059 57.9173 51.4663C58.2589 50.7267 58.4104 49.9135 58.3579 49.1005C58.3579 46.2642 58.2405 43.4278 58.2601 40.6012C58.2601 36.7867 58.4752 32.9821 58.485 29.1774C58.485 27.0355 57.9178 25.2652 55.7073 24.0817C52.157 22.243 48.7044 20.2282 45.3301 18.1058C42.8752 16.5506 40.3029 15.1716 37.8773 13.6262C37.1383 13.1842 36.2932 12.9507 35.4321 12.9507C34.571 12.9507 33.726 13.1842 32.987 13.6262C30.7472 14.6728 28.7813 16.2377 26.6393 17.47C24.2431 18.8589 21.8566 20.2673 19.4212 21.6072C17.611 22.4759 15.8742 23.4899 14.2277 24.6392C13.6576 25.0432 13.1858 25.5704 12.8471 26.1816C12.5085 26.7928 12.3118 27.4724 12.2716 28.17C12.076 31.515 12.4672 34.8306 12.4183 38.1658C12.3694 41.501 12.3303 44.7188 12.301 47.9953C12.301 48.6409 12.301 49.2864 12.3596 49.9515C12.4296 50.781 12.7144 51.578 13.186 52.264C13.6576 52.95 14.2998 53.5014 15.0493 53.8637C18.0422 55.6633 21.1915 57.1695 24.204 58.9398C25.5244 59.7223 26.7958 60.583 28.1162 61.3752C28.8889 61.8447 29.0943 61.7078 29.0943 60.7884C29.0943 56.749 29.0943 52.6998 29.0943 48.6604C29.1085 48.3165 29.0425 47.9741 28.9016 47.66C28.7607 47.346 28.5488 47.069 28.2825 46.851C26.4107 45.0872 25.2782 42.6787 25.1136 40.1122C24.9494 38.5392 25.1487 36.9495 25.696 35.4657C26.2433 33.9819 27.1241 32.6437 28.2704 31.5541C29.4167 30.4645 30.7979 29.6527 32.3075 29.1813C33.8171 28.7099 35.4148 28.5914 36.9775 28.8351C38.5718 29.0353 40.0942 29.6173 41.4155 30.5317C42.7369 31.4461 43.818 32.6658 44.5672 34.0873C45.2618 35.3309 45.6878 36.7065 45.8175 38.125C45.9472 39.5436 45.7779 40.9736 45.3203 42.3226C44.6728 44.1936 43.5425 45.8604 42.0438 47.1542C41.8788 47.3434 41.7587 47.5675 41.6926 47.8097C41.6266 48.052 41.6162 48.306 41.6624 48.5528C41.6624 51.2718 41.6624 53.9811 41.6624 56.7001C41.6624 63.7552 41.6787 70.807 41.7113 77.8556C41.7113 79.3031 41.6624 80.7897 41.5939 82.1884C41.545 83.1664 41.1538 83.3523 40.3322 82.8828C37.7306 81.4059 35.1485 79.9486 32.5664 78.413C30.5418 77.2394 28.4781 76.1342 26.5024 74.892C22.5902 72.3882 18.5703 70.08 14.482 67.7522C12.4085 66.5687 10.2568 65.5418 8.17354 64.3387C6.47276 63.3308 4.83922 62.2134 3.28323 60.9938C2.46739 60.3507 1.78777 59.5517 1.284 58.6432C0.780229 57.7347 0.462398 56.735 0.349047 55.7025C-0.0012943 52.8934 -0.0929649 50.0582 0.0751893 47.2324C0.114312 43.0463 0.212118 38.8505 0.163215 34.6546C0.163215 30.6445 -0.130204 26.6247 0.485975 22.6244C0.657963 21.4445 1.07377 20.3134 1.70692 19.3031C2.34007 18.2927 3.17669 17.4253 4.16349 16.756C6.79305 14.96 9.53023 13.3268 12.3596 11.8657C16.0372 9.90961 19.6071 7.66985 23.2063 5.5279C25.8275 3.98256 28.439 2.41766 31.158 1.05816C32.3733 0.398409 33.7278 0.0366494 35.1102 0.00264201C36.4926 -0.0313654 37.8634 0.263352 39.1096 0.862544C42.0883 2.23841 44.9676 3.82018 47.7264 5.59636C50.6149 7.4286 53.5589 9.15325 56.5582 10.7703C58.7589 11.9831 60.9693 13.1763 63.1504 14.4087C64.6073 15.2556 66.0118 16.1897 67.356 17.206C68.2046 17.8295 68.9141 18.6228 69.4395 19.5355C69.9648 20.4481 70.2945 21.4601 70.4076 22.507C70.7842 26.2111 70.8823 29.9382 70.701 33.6569C70.6423 37.2562 70.7988 40.8555 70.8477 44.4156C70.8966 47.9758 71.239 51.5066 70.701 55.0276C70.5003 57.0712 69.5983 58.9823 68.1483 60.4363C66.2743 62.1288 64.1941 63.578 61.9571 64.7495Z" fill="url(#paint0_linear_130_2889)"/>
<defs>
<linearGradient id="paint0_linear_130_2889" x1="31.1161" y1="6.75052e-08" x2="28.4861" y2="53.9166" gradientUnits="userSpaceOnUse">
<stop stop-color="#ADCFFF"/>
<stop offset="1" stop-color="#375ADE"/>
</linearGradient>
</defs>
</svg>
