<svg width="73" height="65" viewBox="0 0 73 65" fill="none" xmlns="http://www.w3.org/2000/svg">
<g id="logo.445b51f2 1" clip-path="url(#clip0_9_7)">
<path id="Vector" d="M38.5 29.9214C38.5 26.6077 41.1863 23.9214 44.5 23.9214H70.5V41.9165H44.5C41.1863 41.9165 38.5 39.2302 38.5 35.9165V29.9214Z" stroke="black" stroke-width="4"/>
<path id="Vector_2" d="M47.5 36.4189C49.433 36.4189 51 34.8519 51 32.9189C51 30.9859 49.433 29.4189 47.5 29.4189C45.567 29.4189 44 30.9859 44 32.9189C44 34.8519 45.567 36.4189 47.5 36.4189Z" fill="#FF6450"/>
<path id="Vector_3" d="M10.5 29.9025V18.4189V14.9189C10.5 8.29152 15.8726 2.91895 22.5 2.91895H58.5C65.1274 2.91895 70.5 8.29152 70.5 14.9189V50.9189C70.5 57.5464 65.1274 62.9189 58.5 62.9189H22.5C15.8726 62.9189 10.5 57.5464 10.5 50.9189V50.4189V38.9165" stroke="black" stroke-width="4"/>
<path id="Vector_4" d="M19 21.8208L11.2071 29.6137C10.8166 30.0042 10.1834 30.0042 9.79289 29.6137L2 21.8208" stroke="black" stroke-width="4" stroke-linecap="round"/>
</g>
<defs>
<clipPath id="clip0_9_7">
<rect width="73" height="65" fill="white"/>
</clipPath>
</defs>
</svg>
