<svg width="50" height="50" viewBox="0 0 50 50" fill="none" xmlns="http://www.w3.org/2000/svg">
<rect width="50" height="50" fill="#F5F5F5"/>
<rect width="1920" height="880" transform="translate(-970 -181)" fill="#F9F8F9"/>
<g clip-path="url(#clip0_0_1)">
<path fill-rule="evenodd" clip-rule="evenodd" d="M50 25C50 38.8048 38.8048 50 25 50C11.1952 50 0 38.8048 0 25C0 11.1952 11.1952 0 25 0C38.8048 0 50 11.1952 50 25Z" fill="#29296E"/>
<path fill-rule="evenodd" clip-rule="evenodd" d="M36.7131 18.3267L36.0756 16.3745C35.9561 15.9761 35.6374 15.6773 35.239 15.5378L33.2868 14.9402C33.0079 14.8606 33.0079 14.4821 33.2868 14.3825L35.239 13.745C35.6374 13.6255 35.9362 13.3068 36.0756 12.9084L36.6733 10.9562C36.7529 10.6773 37.1314 10.6773 37.231 10.9562L37.8685 12.9084C37.988 13.3068 38.3067 13.6056 38.7051 13.745L40.6573 14.3426C40.9362 14.4223 40.9362 14.8008 40.6573 14.9004L38.7051 15.5378C38.3067 15.6574 38.0079 15.9761 37.8685 16.3745L37.2709 18.3267C37.1713 18.5857 36.7928 18.5857 36.7131 18.3267Z" fill="#FAFAFA"/>
<path fill-rule="evenodd" clip-rule="evenodd" d="M2.19116 24.6016C2.78877 23.4263 3.96407 22.5299 5.19913 21.9721C6.43419 21.4143 7.78877 21.0757 9.12343 20.9761C11.8127 20.7371 14.4422 21.1753 16.8326 21.9721C18.0677 22.3506 19.1633 22.8486 20.2987 23.3665C20.8565 23.6255 21.3744 23.9442 21.9123 24.243L23.3864 25.0996C25.0198 26.0956 26.5936 26.992 28.0677 27.6892C29.5617 28.3665 30.8963 28.8446 32.1513 29.0837C33.4063 29.3227 34.7011 29.3227 36.2748 28.9641C37.8485 28.6056 39.6015 27.8287 41.4541 26.8526C43.3067 25.8566 45.2191 24.6414 47.3904 23.4661C47.1712 25.9363 46.474 28.2669 45.3983 30.5179C44.2828 32.7291 42.729 34.9004 40.478 36.6534C38.2669 38.4263 35.2191 39.6414 32.1314 39.8406C29.0238 40.0598 26.0955 39.3625 23.5856 38.3267C21.0756 37.2709 18.8844 35.8964 16.972 34.3825C16.4342 33.9641 16.1553 33.7251 15.7569 33.3865L14.6613 32.4104C13.9242 31.8327 13.2071 31.1355 12.47 30.5578C11.0159 29.2829 9.56168 28.0478 7.96805 26.992C7.17124 26.4542 6.35451 25.9363 5.41825 25.498C4.96009 25.2789 4.46208 25.0797 3.92423 24.9203C3.38638 24.741 2.84853 24.6414 2.19116 24.6016Z" fill="#FF4F0A"/>
<path fill-rule="evenodd" clip-rule="evenodd" d="M2.19116 24.6414C2.48997 22.1116 3.66527 19.741 5.5577 17.7291C7.43021 15.737 10.3784 14.1833 13.6254 13.9841C15.239 13.8845 16.8724 14.0637 18.3665 14.4621C19.8605 14.8805 21.2549 15.4781 22.5298 16.1952C23.1673 16.5538 23.7449 16.9522 24.3426 17.3307L25.9163 18.5259L28.3665 20.4582C29.9601 21.7131 31.474 22.8884 32.8685 23.8645C34.2828 24.8406 35.478 25.5378 36.6334 25.9562C37.7688 26.4143 39.2031 26.5139 41.1155 26.0359C42.0517 25.8167 43.0477 25.4183 44.1035 24.9801C45.1394 24.5418 46.235 24.004 47.4302 23.4861C47.2908 24.761 47.0318 26.0159 46.5338 27.2112C46.0557 28.4064 45.4382 29.5817 44.5816 30.6773C44.1433 31.2151 43.6653 31.753 43.1075 32.2311C42.5497 32.7092 41.9322 33.1673 41.2549 33.5657C39.9003 34.3426 38.2868 34.9203 36.6334 35.1394C34.98 35.3386 33.3266 35.239 31.8127 34.9203C30.2987 34.6016 28.9242 34.1036 27.6493 33.5259C25.1194 32.3506 23.0079 30.8765 21.1354 29.3028C20.1991 28.5259 19.3226 27.7092 18.486 26.8725L17.5099 25.8765C17.2111 25.5976 16.9123 25.2988 16.6135 25.0398C15.4183 23.9841 14.3027 23.1673 13.0876 22.6693C11.8724 22.1315 10.3187 21.9323 8.4063 22.2908C6.49395 22.6693 4.42224 23.4861 2.19116 24.6414Z" fill="#FAFAFA"/>
<path fill-rule="evenodd" clip-rule="evenodd" d="M12.3506 37.6494C12.3506 38.4263 11.7331 39.0438 10.9562 39.0438C10.1793 39.0438 9.56177 38.4263 9.56177 37.6494C9.56177 36.8725 10.1793 36.255 10.9562 36.255C11.7331 36.255 12.3506 36.8725 12.3506 37.6494Z" fill="#FAFAFA"/>
<path fill-rule="evenodd" clip-rule="evenodd" d="M12.3506 37.6494C12.3506 38.4263 11.7331 39.0438 10.9562 39.0438C10.1793 39.0438 9.56177 38.4263 9.56177 37.6494C9.56177 36.8725 10.1793 36.255 10.9562 36.255C11.7331 36.255 12.3506 36.8725 12.3506 37.6494Z" fill="#FAFAFA"/>
</g>
<defs>
<clipPath id="clip0_0_1">
<rect width="50" height="50" fill="white"/>
</clipPath>
</defs>
</svg>
