<svg width="50" height="50" viewBox="0 0 50 50" fill="none" xmlns="http://www.w3.org/2000/svg">
<g id="Layer_x0020_1">
<path id="Vector" d="M25 0C38.8084 0 50 11.1939 50 25C50 38.8084 38.8084 50 25 50C11.1939 50 0 38.8073 0 25C0 11.1939 11.1939 0 25 0Z" fill="#F5AC37"/>
<path id="Vector_2" d="M25.9214 26.7651H35.421C35.6235 26.7651 35.7191 26.7651 35.7338 26.4996C35.8114 25.5333 35.8114 24.5612 35.7338 23.5937C35.7338 23.4059 35.6404 23.3282 35.4368 23.3282H16.5309C16.2969 23.3282 16.2339 23.4059 16.2339 23.6252V26.4063C16.2339 26.7651 16.2339 26.7651 16.6086 26.7651H25.9214ZM34.6729 20.0781C34.6999 20.0072 34.6999 19.9296 34.6729 19.8598C34.5142 19.5144 34.3264 19.1848 34.1081 18.8754C33.7796 18.3467 33.3926 17.8596 32.9516 17.4219C32.7435 17.1575 32.5027 16.9202 32.2327 16.7188C30.8805 15.5679 29.2728 14.7534 27.5448 14.3439C26.6729 14.1481 25.7819 14.0548 24.8886 14.0626H16.4983C16.2643 14.0626 16.2328 14.156 16.2328 14.3596V19.9059C16.2328 20.14 16.2328 20.203 16.5298 20.203H34.5604C34.5604 20.203 34.7167 20.1715 34.7482 20.0781H34.6717H34.6729ZM34.6729 30.0153C34.4074 29.986 34.1396 29.986 33.8741 30.0153H16.5467C16.3127 30.0153 16.2339 30.0153 16.2339 30.3281V35.7506C16.2339 36.0004 16.2339 36.0634 16.5467 36.0634H24.5466C24.9291 36.0926 25.3117 36.0656 25.6863 35.9857C26.8473 35.9025 27.9892 35.6505 29.0782 35.2354C29.4742 35.0981 29.8567 34.9192 30.2178 34.7043H30.327C32.2023 33.729 33.7256 32.1967 34.6864 30.3157C34.6864 30.3157 34.7955 30.0794 34.6729 30.0175V30.0153ZM13.094 38.8748V38.7814V35.1408V33.9067V30.2347C13.094 30.031 13.094 30.0007 12.8443 30.0007H9.45349C9.26561 30.0007 9.18799 30.0007 9.18799 29.7509V26.782H12.8128C13.0153 26.782 13.094 26.782 13.094 26.5165V23.5791C13.094 23.3912 13.094 23.3451 12.8443 23.3451H9.45349C9.26561 23.3451 9.18799 23.3451 9.18799 23.0954V20.3458C9.18799 20.1737 9.18799 20.1276 9.43774 20.1276H12.797C13.031 20.1276 13.094 20.1276 13.094 19.8306V11.4087C13.094 11.159 13.094 11.096 13.4068 11.096H25.1249C25.9754 11.1297 26.8203 11.2231 27.6562 11.3772C29.3786 11.6956 31.0335 12.311 32.5466 13.1896C33.5501 13.7803 34.4737 14.4935 35.2961 15.3148C35.9149 15.9572 36.4729 16.6524 36.9679 17.3927C37.4595 18.1431 37.8679 18.9452 38.1885 19.7833C38.2279 20.0016 38.4372 20.149 38.6554 20.1118H41.4522C41.8111 20.1118 41.8111 20.1118 41.8268 20.4561V23.0189C41.8268 23.2686 41.7334 23.3316 41.4826 23.3316H39.3259C39.1077 23.3316 39.0447 23.3316 39.0604 23.6129C39.1459 24.5646 39.1459 25.5198 39.0604 26.4715C39.0604 26.737 39.0604 26.7685 39.3585 26.7685H41.8257C41.9348 26.9091 41.8257 27.0498 41.8257 27.1915C41.8414 27.3726 41.8414 27.556 41.8257 27.7372V29.6283C41.8257 29.8938 41.7481 29.9725 41.5129 29.9725H38.5598C38.3539 29.9332 38.1537 30.0648 38.1064 30.2696C37.4033 32.0977 36.2783 33.7368 34.8247 35.0508C34.2937 35.529 33.7357 35.979 33.153 36.3941C32.5275 36.7541 31.9188 37.1287 31.2776 37.4257C30.0974 37.9568 28.8599 38.3483 27.5898 38.5969C26.3838 38.8129 25.1609 38.9108 23.9335 38.8939H13.0895V38.8781L13.094 38.8748Z" fill="#FEFEFD"/>
</g>
</svg>
