<svg width="52" height="50" viewBox="0 0 52 50" fill="none" xmlns="http://www.w3.org/2000/svg">
<circle cx="27" cy="25" r="25" fill="white"/>
<mask id="mask0_20_219" style="mask-type:alpha" maskUnits="userSpaceOnUse" x="0" y="0" width="50" height="50">
<circle cx="25" cy="25" r="25" fill="white"/>
</mask>
<g mask="url(#mask0_20_219)">
<path d="M19.2802 7.26618C18.7356 7.18861 18.7097 7.16275 18.969 7.1369C19.4617 7.05933 20.6028 7.16276 21.4067 7.34376C23.2738 7.78333 24.9595 8.92104 26.7488 10.912L27.2156 11.455L27.8899 11.3516C30.7684 10.8862 33.7248 11.2482 36.1884 12.3859C36.8627 12.6962 37.9259 13.3167 38.0556 13.4719C38.1075 13.5236 38.1853 13.8597 38.2371 14.1959C38.4187 15.4112 38.3409 16.3162 37.9519 17.0143C37.7444 17.4022 37.7444 17.5056 37.8741 17.8417C37.9778 18.1003 38.289 18.2813 38.5742 18.2813C39.1966 18.2813 39.845 17.2987 40.1562 15.9283L40.2858 15.3853L40.5192 15.6439C41.8418 17.1177 42.8791 19.1604 43.0347 20.6084L43.0866 20.9963L42.8532 20.6601C42.4642 20.0654 42.1011 19.6776 41.6084 19.3414C40.7267 18.7467 39.7931 18.5657 37.3295 18.4364C35.0992 18.3072 33.8285 18.1262 32.5837 17.7124C30.4573 17.0143 29.3681 16.1093 26.8526 12.7737C25.7375 11.2999 25.0373 10.4983 24.3371 9.82603C22.807 8.35218 21.277 7.57647 19.2802 7.26618Z" fill="#FF007A"/>
<path d="M38.6004 10.55C38.6522 9.56746 38.7819 8.92103 39.0671 8.32632C39.1709 8.09361 39.2746 7.88675 39.3005 7.88675C39.3265 7.88675 39.2746 8.06775 39.1968 8.27461C38.9893 8.84346 38.9634 9.64503 39.0931 10.55C39.2746 11.7136 39.3524 11.8687 40.5972 13.1357C41.1677 13.7304 41.842 14.4803 42.1013 14.7906L42.5422 15.3594L42.1013 14.9457C41.5567 14.4286 40.3119 13.446 40.0267 13.3167C39.8451 13.2133 39.8192 13.2133 39.6895 13.3426C39.5858 13.446 39.5599 13.6012 39.5599 14.351C39.5339 15.5146 39.3783 16.2386 38.9893 16.9884C38.7819 17.3763 38.7559 17.2987 38.9375 16.8592C39.0671 16.523 39.0931 16.3679 39.0931 15.256C39.0931 13.0064 38.8337 12.4635 37.2518 11.5585C36.8628 11.3257 36.1886 10.9896 35.7996 10.8086C35.3847 10.6276 35.0735 10.4725 35.0994 10.4725C35.1513 10.4207 36.6813 10.8603 37.2778 11.1189C38.1854 11.4809 38.341 11.5067 38.4448 11.4809C38.5226 11.4033 38.5744 11.1965 38.6004 10.55Z" fill="#FF007A"/>
<path d="M20.3436 14.4027C19.2544 12.903 18.5542 10.5759 18.7098 8.84344L18.7617 8.30045L19.021 8.35216C19.4878 8.42973 20.2917 8.74002 20.6807 8.97273C21.718 9.5933 22.1848 10.4466 22.6257 12.5669C22.7553 13.1874 22.9369 13.9114 23.0147 14.1441C23.1443 14.532 23.6371 15.437 24.052 16.0059C24.3373 16.4196 24.1557 16.6264 23.5074 16.5747C22.522 16.4713 21.1994 15.5663 20.3436 14.4027Z" fill="#FF007A"/>
<path d="M37.2777 25.6505C32.1429 23.582 30.3276 21.7978 30.3276 18.7725C30.3276 18.333 30.3536 17.971 30.3536 17.971C30.3795 17.971 30.561 18.1261 30.7944 18.3071C31.8317 19.1345 32.9987 19.4965 36.2403 19.962C38.1334 20.2464 39.2226 20.4533 40.2081 20.7894C43.346 21.8237 45.2909 23.944 45.7577 26.8141C45.8874 27.6415 45.8096 29.2188 45.6021 30.0462C45.4206 30.6927 44.9019 31.8821 44.7723 31.9079C44.7463 31.9079 44.6945 31.7787 44.6945 31.5718C44.6426 30.4858 44.098 29.4515 43.1904 28.65C42.1012 27.7191 40.7008 27.021 37.2777 25.6505Z" fill="#FF007A"/>
<path d="M33.6469 26.5038C33.595 26.116 33.4654 25.6247 33.3876 25.4178L33.2579 25.03L33.4913 25.3144C33.8284 25.7023 34.0878 26.1677 34.3212 26.8141C34.5027 27.3054 34.5027 27.4605 34.5027 28.2621C34.5027 29.0378 34.4768 29.2188 34.3212 29.6584C34.0618 30.3565 33.7506 30.8478 33.232 31.3908C32.2984 32.3475 31.0796 32.8647 29.3421 33.0974C29.0309 33.1232 28.1491 33.2008 27.3712 33.2525C25.4262 33.3559 24.1295 33.5628 22.9626 33.9765C22.807 34.0282 22.6514 34.0799 22.6254 34.0541C22.5736 34.0024 23.3775 33.5369 24.0258 33.2267C24.9335 32.7871 25.867 32.5544 27.9157 32.1924C28.9271 32.0372 29.9644 31.8304 30.2238 31.7269C32.7911 30.9254 34.0618 28.9344 33.6469 26.5038Z" fill="#FF007A"/>
<path d="M36.0073 30.6668C35.333 29.193 35.1774 27.7967 35.5405 26.478C35.5923 26.3487 35.6442 26.2194 35.6961 26.2194C35.7479 26.2194 35.9035 26.297 36.0591 26.4004C36.3703 26.6072 37.0186 26.9692 38.6783 27.8742C40.7789 29.012 41.9718 29.8911 42.8017 30.8995C43.5278 31.7787 43.9687 32.7871 44.1761 34.0282C44.3058 34.7264 44.228 36.4071 44.0465 37.1052C43.4759 39.3031 42.1793 41.0613 40.2862 42.0698C40.0009 42.2249 39.7675 42.3283 39.7416 42.3283C39.7157 42.3283 39.8194 42.0698 39.975 41.7595C40.5974 40.4408 40.6752 39.1738 40.2084 37.7516C39.9231 36.8725 39.3267 35.8124 38.1337 34.0282C36.7074 31.9597 36.3703 31.4167 36.0073 30.6668Z" fill="#FF007A"/>
<path d="M16.6869 38.579C18.606 36.9759 20.9659 35.8382 23.1442 35.4762C24.0778 35.3211 25.6338 35.3728 26.4896 35.6055C27.864 35.9675 29.1088 36.7432 29.7571 37.6999C30.3795 38.6308 30.6648 39.4323 30.95 41.2165C31.0537 41.9146 31.1834 42.6386 31.2093 42.7937C31.4168 43.7246 31.8317 44.4486 32.3504 44.8365C33.1543 45.4312 34.5547 45.457 35.9291 44.9399C36.1625 44.8623 36.37 44.7847 36.37 44.8106C36.4219 44.8623 35.7217 45.3277 35.2549 45.5605C34.6066 45.8966 34.0879 46 33.3877 46C32.1429 46 31.0797 45.3536 30.2239 44.0607C30.0424 43.8022 29.6793 43.0523 29.3681 42.3542C28.4605 40.2598 27.9937 39.6392 26.9304 38.941C25.9968 38.3463 24.8039 38.217 23.8963 38.6566C22.7034 39.2255 22.3922 40.751 23.222 41.6819C23.5591 42.0697 24.1815 42.38 24.7002 42.4576C25.6597 42.5869 26.4896 41.837 26.4896 40.8803C26.4896 40.2598 26.2562 39.8978 25.6338 39.6133C24.8039 39.2513 23.8963 39.665 23.9222 40.4666C23.9222 40.8028 24.0778 41.0096 24.4149 41.1647C24.6224 41.2682 24.6224 41.2682 24.4668 41.2423C23.7147 41.0872 23.5332 40.1563 24.1297 39.5616C24.8558 38.8376 26.3858 39.1479 26.9045 40.1563C27.1119 40.57 27.1379 41.3975 26.9564 41.9146C26.5155 43.0523 25.2707 43.647 24 43.3109C23.1442 43.0782 22.7812 42.8455 21.7438 41.7853C19.9285 39.9236 19.2283 39.5616 16.6351 39.1738L16.1423 39.0962L16.6869 38.579Z" fill="#FF007A"/>
<path fill-rule="evenodd" clip-rule="evenodd" d="M3.04596 -3.02496C9.08832 4.29259 18.3982 15.6697 18.865 16.2903C19.254 16.8074 19.0984 17.2987 18.4501 17.6607C18.087 17.8676 17.335 18.0744 16.9719 18.0744C16.557 18.0744 16.0643 17.8676 15.7271 17.5314C15.4937 17.2987 14.4824 15.8248 12.2003 12.2824C10.4628 9.56744 8.98459 7.31787 8.95866 7.29201C8.85493 7.2403 8.85493 7.2403 12.0187 12.8771C14.0156 16.4196 14.6639 17.6866 14.6639 17.8417C14.6639 18.1778 14.5602 18.3588 14.1452 18.8243C13.445 19.6 13.1339 20.4791 12.9005 22.315C12.6411 24.3577 11.9409 25.8057 9.94411 28.2621C8.77713 29.7101 8.5956 29.9687 8.31034 30.5634C7.94728 31.2874 7.84354 31.7011 7.79168 32.6319C7.73981 33.6145 7.84354 34.2351 8.12881 35.1659C8.38813 35.9934 8.6734 36.5364 9.37358 37.5965C9.97004 38.5273 10.3331 39.2255 10.3331 39.4841C10.3331 39.6909 10.385 39.6909 11.3186 39.4841C13.5488 38.9669 15.39 38.0878 16.4014 37.0018C17.0238 36.3295 17.1794 35.9675 17.1794 35.0366C17.1794 34.4419 17.1535 34.3126 16.9979 33.9506C16.7385 33.3818 16.2458 32.9164 15.1826 32.1924C13.7822 31.2357 13.1857 30.4599 13.0301 29.4257C12.9005 28.5465 13.0561 27.9518 13.834 26.3228C14.638 24.6421 14.8454 23.944 14.9751 22.2374C15.0529 21.1514 15.1826 20.7118 15.4937 20.3757C15.8309 20.0137 16.1161 19.8844 16.9201 19.781C18.2426 19.6 19.0984 19.2638 19.7727 18.6174C20.3691 18.0744 20.6285 17.5314 20.6544 16.7298L20.6803 16.1351L20.3432 15.7731C19.1244 14.3769 2.24204 -4.13681 2.16424 -4.13681C2.13831 -4.13681 2.55323 -3.64553 3.04596 -3.02496ZM11.0074 33.7438C11.2926 33.2525 11.137 32.6319 10.6702 32.3217C10.2294 32.0372 9.55511 32.1665 9.55511 32.5544C9.55511 32.6578 9.60698 32.7612 9.76258 32.8129C9.99597 32.9422 10.0219 33.0715 9.84038 33.3559C9.65885 33.6404 9.65885 33.8989 9.89224 34.0799C10.2553 34.3644 10.748 34.2092 11.0074 33.7438Z" fill="#FF007A"/>
<path fill-rule="evenodd" clip-rule="evenodd" d="M21.5104 20.1429C20.888 20.3239 20.2915 20.9962 20.11 21.6685C20.0063 22.0822 20.0581 22.8321 20.2397 23.0648C20.5249 23.4268 20.7843 23.5302 21.5104 23.5302C22.9367 23.5302 24.1555 22.9097 24.2852 22.1598C24.4149 21.5392 23.8703 20.6859 23.1182 20.2981C22.7292 20.0912 21.9253 20.0137 21.5104 20.1429ZM23.1701 21.4358C23.3775 21.1255 23.2997 20.7894 22.9108 20.5567C22.2106 20.1171 21.1473 20.4791 21.1473 21.1514C21.1473 21.4875 21.6919 21.8495 22.2106 21.8495C22.5477 21.8495 23.0145 21.6427 23.1701 21.4358Z" fill="#FF007A"/>
</g>
</svg>
