<svg width="250" height="251" viewBox="0 0 250 251" fill="none" xmlns="http://www.w3.org/2000/svg">
<g opacity="0.2">
<path d="M52.5005 207.365C76.9037 207.365 96.6865 204.046 96.6865 199.952C96.6865 195.858 76.9037 192.539 52.5005 192.539C28.0972 192.539 8.31445 195.858 8.31445 199.952C8.31445 204.046 28.0972 207.365 52.5005 207.365Z" fill="#161F30"/>
<mask id="mask0_23_997" style="mask-type:luminance" maskUnits="userSpaceOnUse" x="8" y="192" width="89" height="16">
<g opacity="0.2">
<path d="M52.5005 207.365C76.9037 207.365 96.6865 204.046 96.6865 199.952C96.6865 195.858 76.9037 192.539 52.5005 192.539C28.0972 192.539 8.31445 195.858 8.31445 199.952C8.31445 204.046 28.0972 207.365 52.5005 207.365Z" fill="white"/>
</g>
</mask>
<g mask="url(#mask0_23_997)">
<path d="M85.5669 199.952C85.5669 195.638 88.1867 193.299 88.7387 192.847C89.4207 192.288 89.7511 192.248 89.1142 192.501C87.9492 192.963 85.6049 193.606 81.9048 194.227C74.6834 195.439 64.2815 196.245 52.5004 196.245V218.484C65.1225 218.484 76.8136 217.631 85.5844 216.16C89.8804 215.439 94.0069 214.485 97.3138 213.173C98.9129 212.539 100.98 211.569 102.839 210.045C104.568 208.627 107.806 205.288 107.806 199.952H85.5669ZM52.5004 196.245C40.7192 196.245 30.3173 195.439 23.0959 194.227C19.3958 193.606 17.0515 192.963 15.8865 192.501C15.2497 192.248 15.58 192.288 16.262 192.847C16.814 193.299 19.4338 195.638 19.4338 199.952H-2.80518C-2.80518 205.288 0.432863 208.627 2.16205 210.045C4.02124 211.569 6.08779 212.539 7.68685 213.173C10.9938 214.485 15.1203 215.439 19.4163 216.16C28.1871 217.631 39.8782 218.484 52.5004 218.484V196.245ZM19.4338 199.952C19.4338 204.265 16.814 206.604 16.262 207.057C15.58 207.616 15.2497 207.655 15.8865 207.402C17.0515 206.94 19.3958 206.297 23.0959 205.676C30.3173 204.465 40.7192 203.658 52.5004 203.658V181.419C39.8782 181.419 28.1871 182.272 19.4163 183.744C15.1203 184.464 10.9938 185.418 7.68685 186.73C6.08779 187.364 4.02124 188.334 2.16205 189.859C0.432863 191.276 -2.80518 194.615 -2.80518 199.952H19.4338ZM52.5004 203.658C64.2815 203.658 74.6834 204.465 81.9048 205.676C85.6049 206.297 87.9492 206.94 89.1142 207.402C89.7511 207.655 89.4207 207.616 88.7387 207.057C88.1867 206.604 85.5669 204.265 85.5669 199.952H107.806C107.806 194.615 104.568 191.276 102.839 189.859C100.98 188.334 98.9129 187.364 97.3138 186.73C94.0069 185.418 89.8804 184.464 85.5844 183.744C76.8136 182.272 65.1225 181.419 52.5004 181.419V203.658Z" fill="#D1D1DE"/>
</g>
</g>
<path d="M207.5 64.2267H57.4998C53.9133 64.2267 51.0059 67.1341 51.0059 70.7207V84.7207C51.0059 88.3072 53.9133 91.2147 57.4998 91.2147H207.5C211.086 91.2147 213.994 88.3072 213.994 84.7207V70.7207C213.994 67.1341 211.086 64.2267 207.5 64.2267Z" fill="#2E3C57"/>
<path d="M207.5 64.2267H57.4998C53.9133 64.2267 51.0059 67.1341 51.0059 70.7207V84.7207C51.0059 88.3072 53.9133 91.2147 57.4998 91.2147H207.5C211.086 91.2147 213.994 88.3072 213.994 84.7207V70.7207C213.994 67.1341 211.086 64.2267 207.5 64.2267Z" stroke="#090949" stroke-width="3.01204"/>
<path d="M218.042 69.9707H46.9578C39.6633 69.9707 33.75 75.884 33.75 83.1785V176.042C33.75 183.336 39.6633 189.25 46.9578 189.25H218.042C225.337 189.25 231.25 183.336 231.25 176.042V83.1785C231.25 75.884 225.337 69.9707 218.042 69.9707Z" fill="url(#paint0_linear_23_997)"/>
<path d="M218.042 69.9707H46.9578C39.6633 69.9707 33.75 75.884 33.75 83.1785V176.042C33.75 183.336 39.6633 189.25 46.9578 189.25H218.042C225.337 189.25 231.25 183.336 231.25 176.042V83.1785C231.25 75.884 225.337 69.9707 218.042 69.9707Z" stroke="#FADBD5" stroke-width="2.5"/>
<path d="M173.509 122.181C173.509 118.879 176.186 116.202 179.488 116.202H231.009V143.702H179.488C176.186 143.702 173.509 141.025 173.509 137.723V122.181Z" fill="#090949"/>
<path d="M192.259 129.952C192.259 127.191 190.02 124.952 187.259 124.952C184.497 124.952 182.259 127.191 182.259 129.952C182.259 132.713 184.497 134.952 187.259 134.952C190.02 134.952 192.259 132.713 192.259 129.952Z" fill="#FCFCFC"/>
<path d="M173.509 122.181C173.509 118.879 176.186 116.202 179.488 116.202H231.009V143.702H179.488C176.186 143.702 173.509 141.025 173.509 137.723V122.181Z" stroke="url(#paint1_linear_23_997)" stroke-width="2.5"/>
<path d="M50.4435 198.871C51.7393 199.582 53.2607 199.582 54.5565 198.871C62.0561 194.756 87.5 179.194 87.5 157.452V131.075C87.5 129.05 86.2335 127.24 84.3303 126.547L54.1496 115.553C53.0841 115.164 51.9159 115.164 50.8505 115.553L20.6697 126.547C18.7665 127.24 17.5 129.05 17.5 131.075V157.452C17.5 179.194 42.9439 194.756 50.4435 198.871Z" fill="#090949" stroke="url(#paint2_linear_23_997)" stroke-width="2.5" stroke-linecap="round" stroke-linejoin="round"/>
<path d="M66.1364 149.952H38.8636C38.1105 149.952 37.5 150.511 37.5 151.202V168.702C37.5 169.392 38.1105 169.952 38.8636 169.952H66.1364C66.8895 169.952 67.5 169.392 67.5 168.702V151.202C67.5 150.511 66.8895 149.952 66.1364 149.952Z" stroke="white" stroke-width="2.5" stroke-linecap="round" stroke-linejoin="round"/>
<path d="M46 149.952V144.618C46 142.85 46.6848 141.155 47.9038 139.904C49.1228 138.654 50.7761 137.952 52.5 137.952C54.2239 137.952 55.8772 138.654 57.0962 139.904C58.3152 141.155 59 142.85 59 144.618V149.952" stroke="white" stroke-width="2.5" stroke-linecap="round" stroke-linejoin="round"/>
<path d="M136.206 218.227C138.253 218.227 139.913 216.568 139.913 214.521C139.913 212.474 138.253 210.814 136.206 210.814C134.159 210.814 132.5 212.474 132.5 214.521C132.5 216.568 134.159 218.227 136.206 218.227Z" fill="white"/>
<path d="M223.939 43.5561C225.986 43.5561 227.645 41.8967 227.645 39.8496C227.645 37.8026 225.986 36.1431 223.939 36.1431C221.892 36.1431 220.232 37.8026 220.232 39.8496C220.232 41.8967 221.892 43.5561 223.939 43.5561Z" fill="white"/>
<path d="M12.021 82.4399C14.068 82.4399 15.7275 80.7805 15.7275 78.7334C15.7275 76.6864 14.068 75.0269 12.021 75.0269C9.97391 75.0269 8.31445 76.6864 8.31445 78.7334C8.31445 80.7805 9.97391 82.4399 12.021 82.4399Z" fill="white"/>
<path d="M77.7625 23.9404L70.629 21.3167C70.4192 21.2393 70.2383 21.0994 70.1104 20.916C69.9826 20.7326 69.9141 20.5143 69.9141 20.2907C69.9141 20.0672 69.9826 19.8489 70.1104 19.6655C70.2383 19.482 70.4192 19.3422 70.629 19.2648L77.7625 16.6411C77.9111 16.5867 78.046 16.5006 78.1578 16.3888C78.2697 16.2769 78.3558 16.142 78.4102 15.9935L81.0338 8.85996C81.1112 8.6502 81.2511 8.46921 81.4345 8.34138C81.618 8.21355 81.8362 8.14502 82.0598 8.14502C82.2834 8.14502 82.5016 8.21355 82.685 8.34138C82.8685 8.46921 83.0083 8.6502 83.0858 8.85996L85.7094 15.9935C85.7638 16.142 85.8499 16.2769 85.9618 16.3888C86.0736 16.5006 86.2085 16.5867 86.357 16.6411L93.4906 19.2648C93.7003 19.3422 93.8813 19.482 94.0092 19.6655C94.137 19.8489 94.2055 20.0672 94.2055 20.2907C94.2055 20.5143 94.137 20.7326 94.0092 20.916C93.8813 21.0994 93.7003 21.2393 93.4906 21.3167L86.357 23.9404C86.2085 23.9948 86.0736 24.0809 85.9618 24.1927C85.8499 24.3046 85.7638 24.4395 85.7094 24.588L83.0858 31.7215C83.0083 31.9313 82.8685 32.1123 82.685 32.2401C82.5016 32.3679 82.2834 32.4365 82.0598 32.4365C81.8362 32.4365 81.618 32.3679 81.4345 32.2401C81.2511 32.1123 81.1112 31.9313 81.0338 31.7215L78.4102 24.588C78.3558 24.4395 78.2697 24.3046 78.1578 24.1927C78.046 24.0809 77.9111 23.9948 77.7625 23.9404Z" fill="#8282FF"/>
<path d="M129.025 39.8495C131.072 39.8495 132.731 38.1901 132.731 36.143C132.731 34.096 131.072 32.4365 129.025 32.4365C126.978 32.4365 125.318 34.096 125.318 36.143C125.318 38.1901 126.978 39.8495 129.025 39.8495Z" fill="white"/>
<path d="M22.7993 228.753L16.3717 226.389C16.1827 226.319 16.0196 226.193 15.9045 226.028C15.7893 225.863 15.7275 225.666 15.7275 225.465C15.7275 225.263 15.7893 225.067 15.9045 224.901C16.0196 224.736 16.1827 224.61 16.3717 224.54L22.7993 222.176C22.9331 222.127 23.0546 222.05 23.1554 221.949C23.2562 221.848 23.3338 221.727 23.3828 221.593L25.7468 215.165C25.8165 214.976 25.9426 214.813 26.1078 214.698C26.2731 214.583 26.4698 214.521 26.6712 214.521C26.8727 214.521 27.0693 214.583 27.2346 214.698C27.3999 214.813 27.5259 214.976 27.5957 215.165L29.9596 221.593C30.0087 221.727 30.0862 221.848 30.187 221.949C30.2878 222.05 30.4093 222.127 30.5432 222.176L36.9707 224.54C37.1597 224.61 37.3228 224.736 37.438 224.901C37.5532 225.067 37.6149 225.263 37.6149 225.465C37.6149 225.666 37.5532 225.863 37.438 226.028C37.3228 226.193 37.1597 226.319 36.9707 226.389L30.5432 228.753C30.4093 228.802 30.2878 228.88 30.187 228.98C30.0862 229.081 30.0087 229.203 29.9596 229.337L27.5957 235.764C27.5259 235.953 27.3999 236.116 27.2346 236.231C27.0693 236.347 26.8727 236.408 26.6712 236.408C26.4698 236.408 26.2731 236.347 26.1078 236.231C25.9426 236.116 25.8165 235.953 25.7468 235.764L23.3828 229.337C23.3338 229.203 23.2562 229.081 23.1554 228.98C23.0546 228.88 22.9331 228.802 22.7993 228.753Z" fill="#F5CCC6"/>
<path d="M223.348 230.316L216.215 227.693C216.005 227.615 215.824 227.475 215.696 227.292C215.569 227.109 215.5 226.89 215.5 226.667C215.5 226.443 215.569 226.225 215.696 226.041C215.824 225.858 216.005 225.718 216.215 225.641L223.348 223.017C223.497 222.963 223.632 222.877 223.744 222.765C223.856 222.653 223.942 222.518 223.996 222.369L226.62 215.236C226.697 215.026 226.837 214.845 227.02 214.717C227.204 214.59 227.422 214.521 227.646 214.521C227.869 214.521 228.088 214.59 228.271 214.717C228.454 214.845 228.594 215.026 228.672 215.236L231.295 222.369C231.35 222.518 231.436 222.653 231.548 222.765C231.66 222.877 231.794 222.963 231.943 223.017L239.077 225.641C239.286 225.718 239.467 225.858 239.595 226.041C239.723 226.225 239.791 226.443 239.791 226.667C239.791 226.89 239.723 227.109 239.595 227.292C239.467 227.475 239.286 227.615 239.077 227.693L231.943 230.316C231.794 230.371 231.66 230.457 231.548 230.569C231.436 230.681 231.35 230.815 231.295 230.964L228.672 238.098C228.594 238.307 228.454 238.488 228.271 238.616C228.088 238.744 227.869 238.812 227.646 238.812C227.422 238.812 227.204 238.744 227.02 238.616C226.837 238.488 226.697 238.307 226.62 238.098L223.996 230.964C223.942 230.815 223.856 230.681 223.744 230.569C223.632 230.457 223.497 230.371 223.348 230.316Z" fill="#FFB4A9"/>
<defs>
<linearGradient id="paint0_linear_23_997" x1="80.5" y1="50" x2="173.5" y2="200.5" gradientUnits="userSpaceOnUse">
<stop stop-color="#E7958C"/>
<stop offset="1" stop-color="#5669AD"/>
</linearGradient>
<linearGradient id="paint1_linear_23_997" x1="177.5" y1="103.5" x2="211.5" y2="159.5" gradientUnits="userSpaceOnUse">
<stop stop-color="#FEE5E0"/>
<stop offset="1" stop-color="#6270B5"/>
</linearGradient>
<linearGradient id="paint2_linear_23_997" x1="52.5" y1="115.261" x2="52.5" y2="199.404" gradientUnits="userSpaceOnUse">
<stop stop-color="#FEE5E0"/>
<stop offset="1" stop-color="#6270B5"/>
</linearGradient>
</defs>
</svg>
