<svg width="250" height="251" viewBox="0 0 250 251" fill="none" xmlns="http://www.w3.org/2000/svg">
<g opacity="0.2">
<path d="M125.343 227.365C174.685 227.365 214.686 220.654 214.686 212.376C214.686 204.098 174.685 197.387 125.343 197.387C76.0001 197.387 36 204.098 36 212.376C36 220.654 76.0001 227.365 125.343 227.365Z" fill="#161F30"/>
<mask id="mask0_66_86" style="mask-type:luminance" maskUnits="userSpaceOnUse" x="36" y="197" width="179" height="31">
<g opacity="0.2">
<path d="M125.343 227.365C174.685 227.365 214.686 220.654 214.686 212.376C214.686 204.098 174.685 197.387 125.343 197.387C76.0001 197.387 36 204.098 36 212.376C36 220.654 76.0001 227.365 125.343 227.365Z" fill="white"/>
</g>
</mask>
<g mask="url(#mask0_66_86)">
<path d="M192.202 212.376C192.202 203.653 197.499 198.924 198.616 198.01C199.995 196.88 200.663 196.799 199.375 197.31C197.019 198.244 192.279 199.545 184.798 200.8C170.196 203.251 149.164 204.881 125.343 204.881V249.847C150.864 249.847 174.503 248.122 192.238 245.148C200.924 243.69 209.268 241.761 215.954 239.108C219.187 237.827 223.367 235.865 227.126 232.784C230.622 229.917 237.169 223.165 237.169 212.376H192.202ZM125.343 204.881C101.522 204.881 80.4892 203.251 65.8877 200.8C58.4062 199.545 53.6661 198.244 51.3105 197.31C50.0229 196.799 50.6908 196.88 52.0698 198.01C53.1859 198.924 58.4831 203.653 58.4831 212.376H13.5166C13.5166 223.165 20.0638 229.917 23.5602 232.784C27.3194 235.865 31.4979 237.827 34.7312 239.108C41.4176 241.761 49.7613 243.69 58.4477 245.148C76.182 248.122 99.821 249.847 125.343 249.847V204.881ZM58.4831 212.376C58.4831 221.097 53.1859 225.826 52.0698 226.742C50.6908 227.872 50.0229 227.951 51.3105 227.44C53.6661 226.506 58.4062 225.205 65.8877 223.95C80.4892 221.501 101.522 219.869 125.343 219.869V174.903C99.821 174.903 76.182 176.628 58.4477 179.604C49.7613 181.06 41.4176 182.989 34.7312 185.641C31.4979 186.923 27.3194 188.885 23.5602 191.968C20.0638 194.833 13.5166 201.585 13.5166 212.376H58.4831ZM125.343 219.869C149.164 219.869 170.196 221.501 184.798 223.95C192.279 225.205 197.019 226.506 199.375 227.44C200.663 227.951 199.995 227.872 198.616 226.742C197.499 225.826 192.202 221.097 192.202 212.376H237.169C237.169 201.585 230.622 194.833 227.126 191.968C223.367 188.885 219.187 186.923 215.954 185.641C209.268 182.989 200.924 181.06 192.238 179.604C174.503 176.628 150.864 174.903 125.343 174.903V219.869Z" fill="#D1D1DE"/>
</g>
</g>
<path d="M192.259 129.952C192.259 127.191 190.02 124.952 187.259 124.952C184.497 124.952 182.259 127.191 182.259 129.952C182.259 132.713 184.497 134.952 187.259 134.952C190.02 134.952 192.259 132.713 192.259 129.952Z" fill="#FCFCFC"/>
<path d="M121.358 209.923C123.968 211.359 127.032 211.359 129.642 209.923C144.749 201.609 196 170.168 196 126.241V72.9496C196 68.8584 193.449 65.2015 189.615 63.8014L128.823 41.5894C126.677 40.8035 124.323 40.8035 122.177 41.5894L61.3847 63.8014C57.5511 65.2015 55 68.8584 55 72.9496V126.241C55 170.168 106.251 201.609 121.358 209.923Z" fill="#090949" stroke="url(#paint0_linear_66_86)" stroke-width="2.5" stroke-linecap="round" stroke-linejoin="round"/>
<path d="M161.498 117.883C160.617 117.883 159.896 118.603 159.896 119.485C159.896 138.07 144.755 153.29 126.09 153.29C107.425 153.29 92.2844 138.15 92.2844 119.565C92.2844 101.701 106.143 87.121 123.687 85.9193L122.245 87.0409C121.524 87.6016 121.364 88.643 121.924 89.364C122.245 89.7645 122.726 90.0049 123.206 90.0049C123.527 90.0049 123.927 89.9248 124.168 89.6844L129.615 85.5188C130.015 85.1984 130.256 84.7177 130.256 84.157C130.256 83.5962 129.935 83.1156 129.535 82.8752L124.087 79.2704C123.366 78.7897 122.325 78.9499 121.844 79.751C121.364 80.472 121.524 81.5134 122.325 81.994L123.447 82.715C104.221 83.9967 89 100.018 89 119.565C89 139.992 105.582 156.575 126.01 156.575C146.438 156.575 163.1 139.992 163.1 119.565C163.1 118.684 162.379 117.883 161.498 117.883Z" fill="white"/>
<path d="M160.216 112.996C161.322 112.996 162.219 112.099 162.219 110.993C162.219 109.887 161.322 108.991 160.216 108.991C159.11 108.991 158.213 109.887 158.213 110.993C158.213 112.099 159.11 112.996 160.216 112.996Z" fill="white"/>
<path d="M157.653 105.546C158.759 105.546 159.656 104.649 159.656 103.543C159.656 102.437 158.759 101.54 157.653 101.54C156.547 101.54 155.65 102.437 155.65 103.543C155.65 104.649 156.547 105.546 157.653 105.546Z" fill="white"/>
<path d="M152.846 98.5765C153.953 98.5765 154.849 97.6798 154.849 96.5738C154.849 95.4677 153.953 94.571 152.846 94.571C151.74 94.571 150.844 95.4677 150.844 96.5738C150.844 97.6798 151.74 98.5765 152.846 98.5765Z" fill="white"/>
<path d="M146.197 92.5683C147.303 92.5683 148.2 91.6717 148.2 90.5656C148.2 89.4596 147.303 88.5629 146.197 88.5629C145.091 88.5629 144.194 89.4596 144.194 90.5656C144.194 91.6717 145.091 92.5683 146.197 92.5683Z" fill="white"/>
<path d="M138.266 88.4026C139.372 88.4026 140.269 87.506 140.269 86.3999C140.269 85.2939 139.372 84.3972 138.266 84.3972C137.16 84.3972 136.264 85.2939 136.264 86.3999C136.264 87.506 137.16 88.4026 138.266 88.4026Z" fill="white"/>
<path d="M140.269 111.554C140.269 110.673 139.548 109.872 138.587 109.872H116.878L120.563 106.187C121.203 105.546 121.203 104.504 120.563 103.864C120.242 103.543 119.842 103.383 119.361 103.383C118.96 103.383 118.48 103.543 118.159 103.864L111.671 110.352C111.03 110.993 111.03 112.035 111.671 112.675L118.159 119.244C118.48 119.565 118.88 119.725 119.361 119.725C119.842 119.725 120.242 119.565 120.563 119.244C120.883 118.924 121.043 118.523 121.043 118.043C121.043 117.562 120.883 117.162 120.563 116.841L116.878 113.076H138.587C139.468 113.236 140.269 112.435 140.269 111.554Z" fill="white"/>
<path d="M132.579 136.628C133.06 136.628 133.46 136.468 133.781 136.147L140.27 129.578C140.91 128.937 140.91 127.896 140.27 127.255L133.781 120.766C133.14 120.126 132.098 120.126 131.458 120.766C130.817 121.407 130.817 122.449 131.458 123.09L135.143 126.775H113.353C112.472 126.775 111.671 127.496 111.671 128.457C111.671 129.338 112.392 130.139 113.353 130.139H135.062L131.378 133.904C131.057 134.225 130.897 134.625 130.897 135.106C130.897 135.586 131.057 135.987 131.378 136.307C131.698 136.468 132.098 136.628 132.579 136.628Z" fill="white"/>
<path d="M223.939 43.5561C225.986 43.5561 227.645 41.8967 227.645 39.8496C227.645 37.8026 225.986 36.1431 223.939 36.1431C221.892 36.1431 220.232 37.8026 220.232 39.8496C220.232 41.8967 221.892 43.5561 223.939 43.5561Z" fill="white"/>
<path d="M12.021 82.4399C14.068 82.4399 15.7275 80.7805 15.7275 78.7334C15.7275 76.6864 14.068 75.0269 12.021 75.0269C9.97391 75.0269 8.31445 76.6864 8.31445 78.7334C8.31445 80.7805 9.97391 82.4399 12.021 82.4399Z" fill="white"/>
<path d="M77.7625 23.9404L70.629 21.3167C70.4192 21.2393 70.2383 21.0994 70.1104 20.916C69.9826 20.7326 69.9141 20.5143 69.9141 20.2907C69.9141 20.0672 69.9826 19.8489 70.1104 19.6655C70.2383 19.482 70.4192 19.3422 70.629 19.2648L77.7625 16.6411C77.9111 16.5867 78.046 16.5006 78.1578 16.3888C78.2697 16.2769 78.3558 16.142 78.4102 15.9935L81.0338 8.85996C81.1112 8.6502 81.2511 8.46921 81.4345 8.34138C81.618 8.21355 81.8362 8.14502 82.0598 8.14502C82.2834 8.14502 82.5016 8.21355 82.685 8.34138C82.8685 8.46921 83.0083 8.6502 83.0858 8.85996L85.7094 15.9935C85.7638 16.142 85.8499 16.2769 85.9618 16.3888C86.0736 16.5006 86.2085 16.5867 86.357 16.6411L93.4906 19.2648C93.7003 19.3422 93.8813 19.482 94.0092 19.6655C94.137 19.8489 94.2055 20.0672 94.2055 20.2907C94.2055 20.5143 94.137 20.7326 94.0092 20.916C93.8813 21.0994 93.7003 21.2393 93.4906 21.3167L86.357 23.9404C86.2085 23.9948 86.0736 24.0809 85.9618 24.1927C85.8499 24.3046 85.7638 24.4395 85.7094 24.588L83.0858 31.7215C83.0083 31.9313 82.8685 32.1123 82.685 32.2401C82.5016 32.3679 82.2834 32.4365 82.0598 32.4365C81.8362 32.4365 81.618 32.3679 81.4345 32.2401C81.2511 32.1123 81.1112 31.9313 81.0338 31.7215L78.4102 24.588C78.3558 24.4395 78.2697 24.3046 78.1578 24.1927C78.046 24.0809 77.9111 23.9948 77.7625 23.9404Z" fill="#8282FF"/>
<path d="M22.7993 228.753L16.3717 226.389C16.1827 226.319 16.0196 226.193 15.9045 226.028C15.7893 225.863 15.7275 225.666 15.7275 225.465C15.7275 225.263 15.7893 225.067 15.9045 224.901C16.0196 224.736 16.1827 224.61 16.3717 224.54L22.7993 222.176C22.9331 222.127 23.0546 222.05 23.1554 221.949C23.2562 221.848 23.3338 221.727 23.3828 221.593L25.7468 215.165C25.8165 214.976 25.9426 214.813 26.1078 214.698C26.2731 214.583 26.4698 214.521 26.6712 214.521C26.8727 214.521 27.0693 214.583 27.2346 214.698C27.3999 214.813 27.5259 214.976 27.5957 215.165L29.9596 221.593C30.0087 221.727 30.0862 221.848 30.187 221.949C30.2878 222.05 30.4093 222.127 30.5432 222.176L36.9707 224.54C37.1597 224.61 37.3228 224.736 37.438 224.901C37.5532 225.067 37.6149 225.263 37.6149 225.465C37.6149 225.666 37.5532 225.863 37.438 226.028C37.3228 226.193 37.1597 226.319 36.9707 226.389L30.5432 228.753C30.4093 228.802 30.2878 228.88 30.187 228.98C30.0862 229.081 30.0087 229.203 29.9596 229.337L27.5957 235.764C27.5259 235.953 27.3999 236.116 27.2346 236.231C27.0693 236.347 26.8727 236.408 26.6712 236.408C26.4698 236.408 26.2731 236.347 26.1078 236.231C25.9426 236.116 25.8165 235.953 25.7468 235.764L23.3828 229.337C23.3338 229.203 23.2562 229.081 23.1554 228.98C23.0546 228.88 22.9331 228.802 22.7993 228.753Z" fill="#F5CCC6"/>
<path d="M223.348 230.316L216.215 227.693C216.005 227.615 215.824 227.475 215.696 227.292C215.569 227.109 215.5 226.89 215.5 226.667C215.5 226.443 215.569 226.225 215.696 226.041C215.824 225.858 216.005 225.718 216.215 225.641L223.348 223.017C223.497 222.963 223.632 222.877 223.744 222.765C223.856 222.653 223.942 222.518 223.996 222.369L226.62 215.236C226.697 215.026 226.837 214.845 227.02 214.717C227.204 214.59 227.422 214.521 227.646 214.521C227.869 214.521 228.088 214.59 228.271 214.717C228.454 214.845 228.594 215.026 228.672 215.236L231.295 222.369C231.35 222.518 231.436 222.653 231.548 222.765C231.66 222.877 231.794 222.963 231.943 223.017L239.077 225.641C239.286 225.718 239.467 225.858 239.595 226.041C239.723 226.225 239.791 226.443 239.791 226.667C239.791 226.89 239.723 227.109 239.595 227.292C239.467 227.475 239.286 227.615 239.077 227.693L231.943 230.316C231.794 230.371 231.66 230.457 231.548 230.569C231.436 230.681 231.35 230.815 231.295 230.964L228.672 238.098C228.594 238.307 228.454 238.488 228.271 238.616C228.088 238.744 227.869 238.812 227.646 238.812C227.422 238.812 227.204 238.744 227.02 238.616C226.837 238.488 226.697 238.307 226.62 238.098L223.996 230.964C223.942 230.815 223.856 230.681 223.744 230.569C223.632 230.457 223.497 230.371 223.348 230.316Z" fill="#FFB4A9"/>
<defs>
<linearGradient id="paint0_linear_66_86" x1="125.5" y1="41" x2="125.5" y2="211" gradientUnits="userSpaceOnUse">
<stop stop-color="#FEE5E0"/>
<stop offset="1" stop-color="#6270B5"/>
</linearGradient>
</defs>
</svg>
